<svg xmlns="http://www.w3.org/2000/svg">
    <symbol id="followers" viewBox="0 0 16 16" fill="currentColor">
        <path d="M2 5.5a3.5 3.5 0 1 1 5.898 2.549 5.508 5.508 0 0 1 3.034 4.084.75.75 0 1 1-1.482.235 4 4 0 0 0-7.9 0 .75.75 0 0 1-1.482-.236A5.507 5.507 0 0 1 3.102 8.05 3.493 3.493 0 0 1 2 5.5ZM11 4a3.001 3.001 0 0 1 2.22 5.018 5.01 5.01 0 0 1 2.56 3.012.749.749 0 0 1-.885.954.752.752 0 0 1-.549-.514 3.507 3.507 0 0 0-2.522-2.372.75.75 0 0 1-.574-.73v-.352a.75.75 0 0 1 .416-.672A1.5 1.5 0 0 0 11 5.5.75.75 0 0 1 11 4Zm-5.5-.5a2 2 0 1 0-.001 3.999A2 2 0 0 0 5.5 3.5Z"></path>
    </symbol>
    <symbol id="stars" viewBox="0 0 16 16" fill="currentColor">
        <path d="M8 .25a.75.75 0 0 1 .673.418l1.882 3.815 4.21.612a.75.75 0 0 1 .416 1.279l-3.046 2.97.719 4.192a.751.751 0 0 1-1.088.791L8 12.347l-3.766 1.98a.75.75 0 0 1-1.088-.79l.72-4.194L.818 6.374a.75.75 0 0 1 .416-1.28l4.21-.611L7.327.668A.75.75 0 0 1 8 .25Zm0 2.445L6.615 5.5a.75.75 0 0 1-.564.41l-3.097.45 2.24 2.184a.75.75 0 0 1 .216.664l-.528 3.084 2.769-1.456a.75.75 0 0 1 .698 0l2.77 1.456-.53-3.084a.75.75 0 0 1 .216-.664l2.24-2.183-3.096-.45a.75.75 0 0 1-.564-.41L8 2.694Z"></path>
    </symbol>
    <symbol id="organization" viewBox="0 0 16 16" fill="currentColor">
        <path d="M1.75 16A1.75 1.75 0 0 1 0 14.25V1.75C0 .784.784 0 1.75 0h8.5C11.216 0 12 .784 12 1.75v12.5c0 .085-.006.168-.018.25h2.268a.25.25 0 0 0 .25-.25V8.285a.25.25 0 0 0-.111-.208l-1.055-.703a.749.749 0 1 1 .832-1.248l1.055.703c.487.325.779.871.779 1.456v5.965A1.75 1.75 0 0 1 14.25 16h-3.5a.766.766 0 0 1-.197-.026c-.099.017-.2.026-.303.026h-3a.75.75 0 0 1-.75-.75V14h-1v1.25a.75.75 0 0 1-.75.75Zm-.25-1.75c0 .138.112.25.25.25H4v-1.25a.75.75 0 0 1 .75-.75h2.5a.75.75 0 0 1 .75.75v1.25h2.25a.25.25 0 0 0 .25-.25V1.75a.25.25 0 0 0-.25-.25h-8.5a.25.25 0 0 0-.25.25ZM3.75 6h.5a.75.75 0 0 1 0 1.5h-.5a.75.75 0 0 1 0-1.5ZM3 3.75A.75.75 0 0 1 3.75 3h.5a.75.75 0 0 1 0 1.5h-.5A.75.75 0 0 1 3 3.75Zm4 3A.75.75 0 0 1 7.75 6h.5a.75.75 0 0 1 0 1.5h-.5A.75.75 0 0 1 7 6.75ZM7.75 3h.5a.75.75 0 0 1 0 1.5h-.5a.75.75 0 0 1 0-1.5ZM3 9.75A.75.75 0 0 1 3.75 9h.5a.75.75 0 0 1 0 1.5h-.5A.75.75 0 0 1 3 9.75ZM7.75 9h.5a.75.75 0 0 1 0 1.5h-.5a.75.75 0 0 1 0-1.5Z"></path>
    </symbol>
    <symbol id="email" viewBox="0 0 16 16" fill="currentColor">
        <path d="M1.75 2h12.5c.966 0 1.75.784 1.75 1.75v8.5A1.75 1.75 0 0 1 14.25 14H1.75A1.75 1.75 0 0 1 0 12.25v-8.5C0 2.784.784 2 1.75 2ZM1.5 12.251c0 .138.112.25.25.25h12.5a.25.25 0 0 0 .25-.25V5.809L8.38 9.397a.75.75 0 0 1-.76 0L1.5 5.809v6.442Zm13-8.181v-.32a.25.25 0 0 0-.25-.25H1.75a.25.25 0 0 0-.25.25v.32L8 7.88Z"></path>
    </symbol>
    <symbol id="link" viewBox="0 0 16 16" fill="currentColor">
        <path d="m7.775 3.275 1.25-1.25a3.5 3.5 0 1 1 4.95 4.95l-2.5 2.5a3.5 3.5 0 0 1-4.95 0 .751.751 0 0 1 .018-1.042.751.751 0 0 1 1.042-.018 1.998 1.998 0 0 0 2.83 0l2.5-2.5a2.002 2.002 0 0 0-2.83-2.83l-1.25 1.25a.751.751 0 0 1-1.042-.018.751.751 0 0 1-.018-1.042Zm-4.69 9.64a1.998 1.998 0 0 0 2.83 0l1.25-1.25a.751.751 0 0 1 1.042.018.751.751 0 0 1 .018 1.042l-1.25 1.25a3.5 3.5 0 1 1-4.95-4.95l2.5-2.5a3.5 3.5 0 0 1 4.95 0 .751.751 0 0 1-.018 1.042.751.751 0 0 1-1.042.018 1.998 1.998 0 0 0-2.83 0l-2.5 2.5a1.998 1.998 0 0 0 0 2.83Z"></path>
    </symbol>
    <symbol id="githubId" viewBox="0 0 16 16" fill="currentColor">
        <path d="M6.766 11.695C4.703 11.437 3.25 9.904 3.25 7.92c0-.806.281-1.677.75-2.258-.203-.532-.172-1.662.062-2.129.626-.081 1.469.258 1.969.726.594-.194 1.219-.291 1.985-.291.765 0 1.39.097 1.953.274.484-.451 1.343-.79 1.969-.709.218.435.25 1.564.046 2.113.5.613.766 1.436.766 2.274 0 1.984-1.453 3.485-3.547 3.759.531.355.891 1.129.891 2.016v1.678c0 .484.39.758.859.564C13.781 14.824 16 11.905 16 8.291 16 3.726 12.406 0 7.984 0 3.562 0 0 3.726 0 8.291c0 3.581 2.203 6.55 5.172 7.663A.595.595 0 0 0 6 15.389v-1.291c-.219.097-.5.162-.75.162-1.031 0-1.641-.581-2.078-1.662-.172-.435-.36-.693-.719-.742-.187-.016-.25-.097-.25-.193 0-.194.313-.339.625-.339.453 0 .844.29 1.25.887.313.468.641.678 1.031.678.391 0 .641-.146 1-.516.266-.275.469-.517.657-.678Z"></path>
    </symbol>
</svg>
